<svg width="19" height="20" viewBox="0 0 19 20" fill="none" xmlns="http://www.w3.org/2000/svg">
<path d="M2.99805 6V18H16.998V6H2.99805ZM2.99805 4H16.998V2H2.99805V4ZM17.998 20H1.99805C1.73283 20 1.47848 19.8946 1.29094 19.7071C1.1034 19.5196 0.998047 19.2652 0.998047 19V1C0.998047 0.734784 1.1034 0.48043 1.29094 0.292893C1.47848 0.105357 1.73283 0 1.99805 0H17.998C18.2633 0 18.5176 0.105357 18.7052 0.292893C18.8927 0.48043 18.998 0.734784 18.998 1V19C18.998 19.2652 18.8927 19.5196 18.7052 19.7071C18.5176 19.8946 18.2633 20 17.998 20ZM4.99805 8H8.99805V12H4.99805V8ZM4.99805 14H14.998V16H4.99805V14ZM10.998 9H14.998V11H10.998V9Z" fill="#7F4AF0"/>
</svg>
