<svg width="19" height="20" viewBox="0 0 19 20" fill="none" xmlns="http://www.w3.org/2000/svg">
<path d="M14.998 0V2H18.005C18.553 2 18.998 2.445 18.998 2.993V19.007C18.998 19.555 18.553 20 18.005 20H1.99105C1.44305 20 0.998047 19.555 0.998047 19.007V2.993C0.998047 2.445 1.44305 2 1.99105 2H4.99805V0H14.998ZM4.99805 4H2.99805V18H16.998V4H14.998V6H4.99805V4ZM6.99805 14V16H4.99805V14H6.99805ZM6.99805 11V13H4.99805V11H6.99805ZM6.99805 8V10H4.99805V8H6.99805ZM12.998 2H6.99805V4H12.998V2Z" fill="#7F4AF0"/>
</svg>
