<svg width="22" height="20" viewBox="0 0 22 20" fill="none" xmlns="http://www.w3.org/2000/svg">
<path d="M2.16007 2.46868C3.32013 1.3084 4.87607 0.629763 6.51566 0.568927C8.15526 0.508091 9.75721 1.06956 11.0001 2.14068C12.2418 1.07135 13.8417 0.510507 15.4793 0.570438C17.1169 0.630369 18.6715 1.30665 19.8317 2.46388C20.992 3.62112 21.6724 5.1739 21.7366 6.81137C21.8008 8.44883 21.2441 10.0501 20.1781 11.2947L12.4131 19.0847C12.0563 19.4416 11.5778 19.6504 11.0736 19.6693C10.5693 19.6882 10.0766 19.5158 9.69407 19.1867L9.58407 19.0857L1.82007 11.2947C0.754555 10.0512 0.197646 8.45138 0.260681 6.81506C0.323717 5.17873 1.00205 3.62649 2.16007 2.46868ZM3.57407 3.88268C2.75631 4.70066 2.28492 5.80212 2.25773 6.95845C2.23055 8.11477 2.64965 9.23716 3.42807 10.0927L3.57407 10.2467L10.9991 17.6717L16.3021 12.3677L12.7671 8.83268L11.7071 9.89268C11.4285 10.1713 11.0978 10.3924 10.7339 10.5433C10.3699 10.6941 9.97977 10.7718 9.58577 10.7719C8.79006 10.7721 8.02686 10.4562 7.46407 9.89368C6.90128 9.33115 6.585 8.5681 6.58481 7.77238C6.58462 6.97667 6.90054 6.21347 7.46307 5.65068L9.56507 3.54768C8.72854 2.88005 7.68148 2.53237 6.61175 2.567C5.54203 2.60164 4.51966 3.01633 3.72807 3.73668L3.57407 3.88268ZM12.0601 6.71068C12.2476 6.52321 12.5019 6.41789 12.7671 6.41789C13.0322 6.41789 13.2865 6.52321 13.4741 6.71068L17.7161 10.9527L18.4241 10.2467C19.2555 9.41581 19.7289 8.29259 19.7429 7.11724C19.7569 5.94188 19.3105 4.80769 18.4991 3.95723C17.6877 3.10677 16.5757 2.60755 15.401 2.56633C14.2263 2.52511 13.0821 2.94517 12.2131 3.73668L12.0601 3.88268L8.87807 7.06468C8.70474 7.23789 8.60104 7.46872 8.58666 7.71334C8.57228 7.95796 8.64822 8.19935 8.80007 8.39168L8.87807 8.47868C9.05128 8.65201 9.28211 8.7557 9.52673 8.77008C9.77135 8.78446 10.0127 8.70852 10.2051 8.55668L10.2921 8.47868L12.0601 6.71068Z" fill="#7F4AF0"/>
</svg>
