<svg width="21" height="19" viewBox="0 0 21 19" fill="none" xmlns="http://www.w3.org/2000/svg">
<path d="M3.82605 18L3.80605 18.02L3.78505 18H1.99005C1.72686 17.9997 1.47454 17.895 1.28854 17.7088C1.10253 17.5226 0.998047 17.2702 0.998047 17.007V0.993C0.999877 0.730378 1.10495 0.479017 1.29056 0.293218C1.47617 0.107418 1.72743 0.00209465 1.99005 0H20.006C20.554 0 20.998 0.445 20.998 0.993V17.007C20.9962 17.2696 20.8911 17.521 20.7055 17.7068C20.5199 17.8926 20.2687 17.9979 20.006 18H3.82605ZM18.998 12V2H2.99805V16L12.998 6L18.998 12ZM18.998 14.828L12.998 8.828L5.82605 16H18.998V14.828ZM6.99805 8C6.46761 8 5.95891 7.78929 5.58383 7.41421C5.20876 7.03914 4.99805 6.53043 4.99805 6C4.99805 5.46957 5.20876 4.96086 5.58383 4.58579C5.95891 4.21071 6.46761 4 6.99805 4C7.52848 4 8.03719 4.21071 8.41226 4.58579C8.78733 4.96086 8.99805 5.46957 8.99805 6C8.99805 6.53043 8.78733 7.03914 8.41226 7.41421C8.03719 7.78929 7.52848 8 6.99805 8Z" fill="#7F4AF0"/>
</svg>
