<svg width="20" height="20" viewBox="0 0 20 20" fill="none" xmlns="http://www.w3.org/2000/svg">
<path d="M11.0593 6.11023L12.4743 7.52523C13.1244 8.17525 13.64 8.94696 13.9919 9.79628C14.3437 10.6456 14.5248 11.5559 14.5248 12.4752C14.5248 13.3945 14.3437 14.3049 13.9919 15.1542C13.64 16.0035 13.1244 16.7752 12.4743 17.4252L12.1203 17.7782C10.8075 19.0911 9.02689 19.8286 7.17028 19.8286C5.31367 19.8286 3.5331 19.0911 2.22028 17.7782C0.907458 16.4654 0.169922 14.6848 0.169922 12.8282C0.169922 10.9716 0.907458 9.19105 2.22028 7.87823L3.63528 9.29323C3.16765 9.75678 2.79618 10.3081 2.54221 10.9156C2.28823 11.5231 2.15675 12.1748 2.15531 12.8333C2.15387 13.4917 2.28249 14.144 2.53381 14.7526C2.78512 15.3612 3.15417 15.9142 3.61976 16.3798C4.08536 16.8453 4.63833 17.2144 5.24694 17.4657C5.85554 17.717 6.50779 17.8456 7.16624 17.8442C7.82469 17.8428 8.47638 17.7113 9.08387 17.4573C9.69137 17.2033 10.2427 16.8319 10.7063 16.3642L11.0603 16.0102C11.9976 15.0726 12.5242 13.8011 12.5242 12.4752C12.5242 11.1494 11.9976 9.87787 11.0603 8.94023L9.64528 7.52523L11.0603 6.11123L11.0593 6.11023ZM17.7773 12.1212L16.3633 10.7072C16.8309 10.2437 17.2024 9.69233 17.4564 9.08483C17.7103 8.47733 17.8418 7.82565 17.8433 7.1672C17.8447 6.50875 17.7161 5.8565 17.4648 5.24789C17.2134 4.63928 16.8444 4.08631 16.3788 3.62071C15.9132 3.15512 15.3602 2.78607 14.7516 2.53476C14.143 2.28345 13.4908 2.15482 12.8323 2.15626C12.1739 2.1577 11.5222 2.28919 10.9147 2.54316C10.3072 2.79714 9.75583 3.1686 9.29228 3.63623L8.93828 3.99023C8.00092 4.92787 7.47435 6.19941 7.47435 7.52523C7.47435 8.85105 8.00092 10.1226 8.93828 11.0602L10.3533 12.4752L8.93828 13.8892L7.52428 12.4752C6.87419 11.8252 6.35851 11.0535 6.00669 10.2042C5.65486 9.35486 5.47377 8.44454 5.47377 7.52523C5.47377 6.60592 5.65486 5.69561 6.00669 4.84628C6.35851 3.99696 6.87419 3.22525 7.52428 2.57523L7.87828 2.22223C9.1911 0.909411 10.9717 0.171875 12.8283 0.171875C14.6849 0.171875 16.4655 0.909411 17.7783 2.22223C19.0911 3.53505 19.8286 5.31562 19.8286 7.17223C19.8286 9.02884 19.0911 10.8094 17.7783 12.1222L17.7773 12.1212Z" fill="#7F4AF0"/>
</svg>
