<svg width="20" height="21" viewBox="0 0 20 21" fill="none" xmlns="http://www.w3.org/2000/svg">
<path d="M12.1183 16.0227L7.91925 13.7327C7.37105 14.3188 6.65924 14.7264 5.87633 14.9026C5.09341 15.0788 4.2756 15.0154 3.52917 14.7208C2.78275 14.4261 2.14221 13.9137 1.69082 13.2502C1.23943 12.5867 0.998047 11.8027 0.998047 11.0002C0.998047 10.1977 1.23943 9.41378 1.69082 8.75027C2.14221 8.08676 2.78275 7.57437 3.52917 7.27968C4.2756 6.98498 5.09341 6.92162 5.87633 7.09783C6.65924 7.27403 7.37105 7.68165 7.91925 8.26771L12.1193 5.97772C11.8808 5.03379 11.9948 4.0353 12.4399 3.16942C12.885 2.30353 13.6306 1.6297 14.5369 1.27422C15.4433 0.918737 16.4482 0.90602 17.3632 1.23845C18.2783 1.57088 19.0407 2.22563 19.5076 3.07998C19.9744 3.93432 20.1136 4.9296 19.8992 5.87926C19.6847 6.82892 19.1312 7.66775 18.3425 8.23852C17.5538 8.8093 16.584 9.07283 15.6149 8.97971C14.6457 8.88659 13.7439 8.44323 13.0783 7.73272L8.87825 10.0227C9.03946 10.6641 9.03946 11.3354 8.87825 11.9767L13.0773 14.2667C13.7429 13.5562 14.6447 13.1128 15.6139 13.0197C16.583 12.9266 17.5528 13.1901 18.3415 13.7609C19.1302 14.3317 19.6837 15.1705 19.8982 16.1202C20.1126 17.0698 19.9734 18.0651 19.5066 18.9195C19.0397 19.7738 18.2773 20.4286 17.3622 20.761C16.4472 21.0934 15.4423 21.0807 14.5359 20.7252C13.6296 20.3697 12.884 19.6959 12.4389 18.83C11.9938 17.9641 11.8798 16.9656 12.1183 16.0217V16.0227ZM4.99825 12.9997C5.52869 12.9997 6.03739 12.789 6.41247 12.4139C6.78754 12.0389 6.99825 11.5301 6.99825 10.9997C6.99825 10.4693 6.78754 9.96057 6.41247 9.5855C6.03739 9.21043 5.52869 8.99971 4.99825 8.99971C4.46782 8.99971 3.95911 9.21043 3.58404 9.5855C3.20897 9.96057 2.99825 10.4693 2.99825 10.9997C2.99825 11.5301 3.20897 12.0389 3.58404 12.4139C3.95911 12.789 4.46782 12.9997 4.99825 12.9997ZM15.9983 6.99972C16.5287 6.99972 17.0374 6.789 17.4125 6.41393C17.7875 6.03886 17.9983 5.53015 17.9983 4.99972C17.9983 4.46928 17.7875 3.96057 17.4125 3.5855C17.0374 3.21043 16.5287 2.99972 15.9983 2.99972C15.4678 2.99972 14.9591 3.21043 14.584 3.5855C14.209 3.96057 13.9983 4.46928 13.9983 4.99972C13.9983 5.53015 14.209 6.03886 14.584 6.41393C14.9591 6.789 15.4678 6.99972 15.9983 6.99972ZM15.9983 18.9997C16.5287 18.9997 17.0374 18.789 17.4125 18.4139C17.7875 18.0389 17.9983 17.5301 17.9983 16.9997C17.9983 16.4693 17.7875 15.9606 17.4125 15.5855C17.0374 15.2104 16.5287 14.9997 15.9983 14.9997C15.4678 14.9997 14.9591 15.2104 14.584 15.5855C14.209 15.9606 13.9983 16.4693 13.9983 16.9997C13.9983 17.5301 14.209 18.0389 14.584 18.4139C14.9591 18.789 15.4678 18.9997 15.9983 18.9997Z" fill="#7F4AF0"/>
</svg>
