<svg width="19" height="20" viewBox="0 0 19 20" fill="none" xmlns="http://www.w3.org/2000/svg">
<path d="M14.998 14H16.998V2H6.99805V4H14.998V14ZM14.998 16V19C14.998 19.552 14.548 20 13.991 20H2.00505C1.87317 20.0008 1.74244 19.9755 1.62037 19.9256C1.49829 19.8757 1.38728 19.8022 1.29371 19.7093C1.20013 19.6164 1.12584 19.5059 1.0751 19.3841C1.02436 19.2624 0.998176 19.1319 0.998047 19L1.00105 5C1.00105 4.448 1.45105 4 2.00805 4H4.99805V1C4.99805 0.734784 5.1034 0.48043 5.29094 0.292893C5.47848 0.105357 5.73283 0 5.99805 0H17.998C18.2633 0 18.5176 0.105357 18.7052 0.292893C18.8927 0.48043 18.998 0.734784 18.998 1V15C18.998 15.2652 18.8927 15.5196 18.7052 15.7071C18.5176 15.8946 18.2633 16 17.998 16H14.998ZM3.00105 6L2.99805 18H12.998V6H3.00105ZM4.99805 14H9.49805C9.63066 14 9.75783 13.9473 9.8516 13.8536C9.94537 13.7598 9.99805 13.6326 9.99805 13.5C9.99805 13.3674 9.94537 13.2402 9.8516 13.1464C9.75783 13.0527 9.63066 13 9.49805 13H6.49805C5.83501 13 5.19912 12.7366 4.73028 12.2678C4.26144 11.7989 3.99805 11.163 3.99805 10.5C3.99805 9.83696 4.26144 9.20107 4.73028 8.73223C5.19912 8.26339 5.83501 8 6.49805 8H6.99805V7H8.99805V8H10.998V10H6.49805C6.36544 10 6.23826 10.0527 6.14449 10.1464C6.05072 10.2402 5.99805 10.3674 5.99805 10.5C5.99805 10.6326 6.05072 10.7598 6.14449 10.8536C6.23826 10.9473 6.36544 11 6.49805 11H9.49805C10.1611 11 10.797 11.2634 11.2658 11.7322C11.7347 12.2011 11.998 12.837 11.998 13.5C11.998 14.163 11.7347 14.7989 11.2658 15.2678C10.797 15.7366 10.1611 16 9.49805 16H8.99805V17H6.99805V16H4.99805V14Z" fill="#7F4AF0"/>
</svg>
