<svg width="19" height="20" viewBox="0 0 19 20" fill="none" xmlns="http://www.w3.org/2000/svg">
<path d="M17.998 20H1.99805C1.73283 20 1.47848 19.8946 1.29094 19.7071C1.1034 19.5196 0.998047 19.2652 0.998047 19V1C0.998047 0.734784 1.1034 0.48043 1.29094 0.292893C1.47848 0.105357 1.73283 0 1.99805 0H17.998C18.2633 0 18.5176 0.105357 18.7052 0.292893C18.8927 0.48043 18.998 0.734784 18.998 1V19C18.998 19.2652 18.8927 19.5196 18.7052 19.7071C18.5176 19.8946 18.2633 20 17.998 20ZM16.998 18V2H2.99805V18H16.998ZM6.99805 4V6C6.99805 6.79565 7.31412 7.55871 7.87673 8.12132C8.43934 8.68393 9.2024 9 9.99805 9C10.7937 9 11.5568 8.68393 12.1194 8.12132C12.682 7.55871 12.998 6.79565 12.998 6V4H14.998V6C14.998 7.32608 14.4713 8.59785 13.5336 9.53553C12.5959 10.4732 11.3241 11 9.99805 11C8.67196 11 7.4002 10.4732 6.46251 9.53553C5.52483 8.59785 4.99805 7.32608 4.99805 6V4H6.99805Z" fill="#7F4AF0"/>
</svg>
