<svg width="21" height="20" viewBox="0 0 21 20" fill="none" xmlns="http://www.w3.org/2000/svg">
<path d="M15.998 2H19.998C20.2633 2 20.5176 2.10536 20.7052 2.29289C20.8927 2.48043 20.998 2.73478 20.998 3V19C20.998 19.2652 20.8927 19.5196 20.7052 19.7071C20.5176 19.8946 20.2633 20 19.998 20H1.99805C1.73283 20 1.47848 19.8946 1.29094 19.7071C1.1034 19.5196 0.998047 19.2652 0.998047 19V3C0.998047 2.73478 1.1034 2.48043 1.29094 2.29289C1.47848 2.10536 1.73283 2 1.99805 2H5.99805V0H7.99805V2H13.998V0H15.998V2ZM13.998 4H7.99805V6H5.99805V4H2.99805V8H18.998V4H15.998V6H13.998V4ZM18.998 10H2.99805V18H18.998V10ZM4.99805 13H6.99805V15H4.99805V13ZM8.99805 13H16.998V15H8.99805V13Z" fill="#7F4AF0"/>
</svg>
