<svg width="22" height="19" viewBox="0 0 22 19" fill="none" xmlns="http://www.w3.org/2000/svg">
<path d="M18.998 4.238L11.07 11.338L2.99805 4.216V16H11.998V18H1.99805C1.73283 18 1.47848 17.8946 1.29094 17.7071C1.1034 17.5196 0.998047 17.2652 0.998047 17V1C0.998047 0.734784 1.1034 0.48043 1.29094 0.292893C1.47848 0.105357 1.73283 0 1.99805 0H19.998C20.2633 0 20.5176 0.105357 20.7052 0.292893C20.8927 0.48043 20.998 0.734784 20.998 1V9H18.998V4.238ZM18.499 2H3.50905L11.059 8.662L18.5 2H18.499ZM18.998 15H21.998L17.998 19L13.998 15H16.998V11H18.998V15Z" fill="#7F4AF0"/>
</svg>
