<svg width="28" height="28" viewBox="0 0 28 28" fill="none" xmlns="http://www.w3.org/2000/svg">
<path d="M21.5426 20.1563L27.2533 25.8657L25.3666 27.7523L19.6573 22.0417C17.533 23.7446 14.8906 24.6709 12.168 24.667C5.54397 24.667 0.167969 19.291 0.167969 12.667C0.167969 6.04299 5.54397 0.666992 12.168 0.666992C18.792 0.666992 24.168 6.04299 24.168 12.667C24.1718 15.3897 23.2456 18.032 21.5426 20.1563ZM18.868 19.167C20.5601 17.4268 21.5051 15.0942 21.5013 12.667C21.5013 7.50966 17.324 3.33366 12.168 3.33366C7.01064 3.33366 2.83464 7.50966 2.83464 12.667C2.83464 17.823 7.01064 22.0003 12.168 22.0003C14.5952 22.0041 16.9278 21.0591 18.668 19.367L18.868 19.167Z" fill="#AEADAD"/>
</svg>
